<?xml version="1.0" standalone="no"?>
<!DOCTYPE svg PUBLIC "-//W3C//DTD SVG 20010904//EN"
 "http://www.w3.org/TR/2001/REC-SVG-20010904/DTD/svg10.dtd">
<svg version="1.0" xmlns="http://www.w3.org/2000/svg"
 width="1563.000000pt" height="1563.000000pt" viewBox="0 0 1563.000000 1563.000000"
 preserveAspectRatio="xMidYMid meet">
<metadata>
Created by potrace 1.14, written by Peter Selinger 2001-2017
</metadata>
<g transform="translate(0.000000,1563.000000) scale(0.100000,-0.100000)"
fill="#000000" stroke="none">
<path d="M4470 10264 c-6 -15 -12 -37 -13 -48 -1 -12 -12 -32 -24 -46 -13 -14
-23 -28 -23 -32 0 -5 -7 -8 -15 -8 -8 0 -15 -4 -15 -8 0 -4 -21 -14 -47 -22
-27 -7 -54 -21 -61 -29 -8 -9 -11 -11 -8 -5 4 8 -10 12 -39 12 -25 1 -55 7
-67 14 -13 7 -26 11 -30 10 -4 -1 -10 7 -13 18 -4 11 -17 23 -30 26 -20 5 -37
-5 -90 -51 -35 -32 -62 -61 -59 -66 3 -5 1 -9 -4 -9 -5 0 4 -25 20 -56 35 -70
35 -102 3 -166 -14 -27 -22 -55 -18 -61 3 -7 3 -9 0 -6 -4 3 -25 -11 -47 -33
-23 -21 -51 -38 -63 -39 -72 -2 -103 -16 -105 -46 -1 -15 -4 -38 -6 -50 -3
-14 0 -23 7 -23 8 0 8 -3 2 -8 -16 -11 -18 -67 -3 -79 7 -5 34 -16 61 -24 26
-7 47 -18 47 -23 0 -5 3 -6 7 -3 10 10 48 -51 70 -114 23 -63 22 -112 0 -156
-9 -17 -14 -33 -12 -37 3 -3 2 -4 -1 -1 -4 2 -15 -5 -26 -17 -22 -26 -16 -51
22 -93 16 -16 39 -43 53 -60 l25 -29 40 18 c23 10 40 22 37 26 -5 7 -2 8 72
12 29 2 54 1 55 -2 2 -3 28 -18 59 -34 31 -15 66 -41 78 -57 l22 -29 -42 0
c-36 0 -40 -2 -29 -15 15 -18 9 -44 -33 -149 l-31 -79 -19 44 c-43 101 -59
163 -48 181 10 16 7 18 -28 18 -22 0 -50 4 -63 9 -13 5 -69 12 -124 16 -54 4
-102 9 -106 12 -5 2 -8 -1 -8 -7 0 -6 -4 -9 -9 -6 -12 8 -34 -20 -27 -33 4 -5
2 -12 -4 -16 -5 -3 -10 -16 -10 -28 -1 -31 -25 -73 -34 -58 -17 27 -25 74 -15
92 9 18 5 19 -69 19 l-79 0 32 -34 c27 -29 83 -152 73 -161 -11 -9 -68 -35
-68 -30 0 3 -10 0 -22 -7 -25 -13 -30 -15 -54 -17 -8 0 -13 -5 -10 -9 3 -5 -9
-6 -26 -4 -23 3 -29 1 -23 -8 6 -9 2 -9 -16 1 -13 7 -26 11 -29 10 -19 -9 -77
16 -126 54 -61 48 -79 50 -119 16 -65 -55 -141 -125 -148 -137 -8 -14 11 -64
25 -64 4 0 7 -3 6 -7 0 -5 7 -26 17 -48 18 -40 28 -155 13 -155 -4 0 -8 -6 -8
-13 0 -8 -18 -47 -41 -89 -59 -108 -68 -112 -263 -116 -125 -3 -161 -1 -167
10 -5 7 -9 111 -9 231 l0 217 63 0 c77 0 132 -15 175 -46 l32 -25 0 87 0 87
-23 -21 c-34 -32 -102 -52 -178 -52 l-69 0 0 135 c0 124 2 135 20 145 29 16
303 5 364 -14 26 -8 59 -25 72 -37 l24 -22 0 61 0 62 -302 0 -301 0 19 -21
c18 -20 19 -42 19 -409 0 -367 -1 -389 -19 -409 l-19 -21 137 0 c126 0 137 -1
132 -17 -3 -10 -8 -58 -11 -107 -3 -49 -9 -94 -12 -99 -4 -6 -1 -7 8 -2 11 7
12 6 2 -6 -19 -23 8 -48 73 -65 67 -17 92 -34 52 -34 -34 0 -37 -15 -37 -170
0 -142 3 -160 28 -160 28 0 44 26 39 65 -2 19 -2 36 2 36 45 12 75 5 99 -24
29 -35 36 -101 13 -125 -7 -8 -9 -19 -5 -25 3 -7 3 -9 -2 -5 -9 8 -75 -74 -75
-94 0 -7 11 -26 24 -41 14 -16 49 -58 78 -93 29 -35 61 -64 70 -64 9 0 40 14
68 30 28 17 57 30 65 30 8 0 15 3 15 8 0 4 23 7 50 7 28 0 50 -4 50 -8 0 -5 4
-6 8 -3 5 3 34 -8 66 -25 31 -16 62 -27 68 -23 7 4 8 3 4 -4 -4 -7 -2 -12 3
-12 6 0 25 -15 42 -32 17 -18 35 -32 40 -31 5 2 8 0 7 -5 -5 -18 26 -110 36
-105 6 3 5 0 -1 -8 -7 -7 -13 -19 -13 -27 0 -8 5 -10 13 -6 9 6 9 5 0 -7 -9
-11 -8 -19 5 -37 14 -18 30 -23 102 -27 47 -3 100 -8 118 -10 40 -4 60 14 68
66 4 21 6 41 5 44 -1 3 3 11 9 18 6 6 27 33 47 60 19 26 42 47 49 47 8 0 14 4
14 10 0 5 3 9 8 9 4 -1 9 0 12 1 3 1 12 3 20 6 8 2 44 12 80 21 36 10 68 22
71 27 4 4 8 4 10 -2 2 -5 20 -12 40 -15 19 -2 45 -9 56 -15 11 -6 24 -8 28 -4
3 4 5 0 3 -8 -2 -9 4 -14 14 -14 10 1 16 -2 13 -6 -7 -12 44 -50 66 -50 11 0
19 4 19 9 0 5 8 12 18 15 9 3 50 37 91 74 l74 68 -12 37 c-7 20 -16 37 -20 37
-12 0 -40 80 -42 120 -1 19 1 51 6 70 8 37 69 156 92 178 7 8 11 18 7 23 -3 5
-2 9 3 8 18 -3 32 2 45 15 8 7 27 16 44 20 29 6 29 6 30 -41 2 -122 103 -193
223 -157 24 7 51 20 60 28 13 14 19 11 52 -24 38 -40 59 -50 59 -28 0 6 3 9 6
5 4 -3 30 7 58 22 72 40 110 44 119 11 7 -28 37 -25 65 8 13 15 21 22 18 15
-7 -14 29 -27 45 -17 7 4 9 3 5 -4 -4 -7 19 -24 58 -43 36 -18 63 -36 61 -40
-3 -4 1 -12 9 -18 10 -8 16 -9 19 -1 3 6 4 5 3 -2 -2 -7 3 -25 10 -40 8 -15
15 -39 16 -53 1 -14 5 -25 8 -25 3 0 4 -18 2 -39 -3 -34 0 -42 23 -57 21 -14
28 -15 35 -5 4 8 9 9 11 3 5 -12 80 -19 97 -8 7 4 12 3 12 -3 0 -10 95 -10
105 1 3 3 15 38 26 78 16 59 27 79 61 111 40 37 116 73 180 86 16 3 28 9 28
13 0 3 24 3 53 -1 53 -7 137 -42 137 -57 0 -15 62 -44 83 -38 31 7 118 86 110
99 -4 6 -1 7 6 3 7 -5 21 0 31 9 10 9 24 14 30 10 6 -4 22 -4 36 -1 l25 7 -3
157 c-3 153 -4 157 -25 160 -31 5 -40 -21 -38 -121 1 -97 -8 -100 -43 -17 -14
32 -17 52 -10 69 5 16 4 29 -4 39 -10 12 -10 14 0 8 11 -6 14 0 11 20 0 4 3
10 8 13 4 3 19 30 33 60 14 30 41 71 61 90 41 40 73 68 74 63 0 -2 16 -1 35 3
19 3 49 8 65 9 69 7 72 13 80 165 6 99 -3 140 -25 126 -5 -3 -11 -1 -15 5 -3
5 -18 10 -32 10 -43 0 -119 50 -150 99 -15 25 -27 48 -25 53 1 4 -3 8 -9 8 -5
0 -7 5 -4 10 4 6 1 18 -7 27 -7 9 -12 18 -10 20 5 8 1 24 -5 20 -16 -10 -7
128 10 162 14 27 15 37 5 44 -10 6 -9 8 3 4 16 -5 34 10 65 58 l18 27 146
-369 c146 -367 146 -368 177 -371 18 -2 33 2 36 10 107 262 292 722 300 747 6
19 26 50 45 68 l33 33 -61 0 c-46 0 -59 -3 -53 -12 4 -7 8 -20 10 -28 1 -8
-58 -166 -131 -350 -74 -184 -137 -345 -140 -357 -4 -13 -10 -23 -14 -23 -6 0
-267 652 -286 713 -3 10 -1 27 4 38 10 18 7 19 -71 19 -66 0 -86 4 -106 20
-14 11 -22 20 -18 20 4 0 -4 11 -19 25 -29 27 -46 32 -46 13 0 -6 -3 -8 -6 -5
-4 4 -19 -2 -33 -12 -14 -10 -44 -24 -66 -32 -22 -8 -43 -18 -47 -24 -5 -6 -8
-5 -8 3 0 7 -5 10 -10 7 -16 -10 -106 14 -156 42 -24 13 -49 21 -55 17 -7 -4
-9 -3 -6 3 4 5 -4 15 -16 22 -49 27 -83 96 -94 191 -6 60 -30 80 -97 81 -28 0
-75 2 -105 5 -54 3 -96 -9 -86 -26 3 -4 1 -10 -4 -12 -5 -1 -11 -18 -14 -36
-3 -18 -15 -49 -26 -68 -12 -20 -18 -40 -15 -46 4 -6 2 -8 -4 -4 -6 3 -14 0
-19 -7 -14 -24 -173 -97 -173 -80 0 3 -8 -1 -18 -10 -10 -10 -21 -15 -24 -12
-4 5 -50 12 -94 14 -22 1 -112 56 -130 80 -6 8 -16 11 -22 7 -7 -4 -12 -2 -12
4 0 14 -25 0 -70 -41 -19 -17 -56 -50 -82 -72 -27 -22 -48 -47 -48 -54 0 -9
-19 -13 -71 -13 l-71 0 30 28 c16 15 45 40 65 55 21 17 35 36 34 48 -1 10 -4
19 -7 19 -3 0 -14 23 -24 50 -17 47 -17 61 -4 148 1 6 5 12 8 12 10 0 36 62
32 75 -2 6 -1 7 3 3 4 -4 19 4 33 18 15 13 41 27 59 30 21 4 30 10 26 18 -5 8
-3 8 8 0 20 -15 60 -3 69 21 4 11 7 44 6 73 0 28 2 52 5 52 3 0 5 10 4 21 -2
22 -32 52 -45 44 -10 -6 -92 35 -108 54 -20 24 -52 100 -52 122 0 10 -4 19 -9
19 -4 0 -4 21 1 48 6 26 11 55 11 64 1 9 5 16 8 15 4 -1 19 13 33 32 30 40 28
43 -44 124 -47 52 -80 72 -80 47 0 -6 -3 -9 -7 -8 -5 1 -22 -5 -39 -15 -36
-18 -93 -25 -113 -12 -9 5 -12 4 -7 -3 3 -6 -15 1 -41 15 -78 42 -113 67 -113
81 0 7 -4 11 -8 8 -4 -2 -8 3 -9 12 -1 9 -4 31 -8 47 -4 17 -7 38 -7 47 1 29
-23 38 -112 44 l-86 5 -10 -27z m135 -463 c3 -5 2 -12 -3 -15 -5 -3 -9 1 -9 9
0 17 3 19 12 6z m242 -6 c0 -8 -4 -12 -9 -9 -5 3 -6 10 -3 15 9 13 12 11 12
-6z m-357 -41 c0 -8 -19 -13 -24 -6 -3 5 1 9 9 9 8 0 15 -2 15 -3z m49 -41
c12 9 13 9 7 0 -5 -9 0 -13 15 -13 29 0 96 -39 115 -67 8 -13 20 -21 26 -17 6
4 8 3 5 -3 -3 -5 1 -29 9 -54 17 -48 14 -121 -6 -161 -7 -12 -26 -37 -42 -55
-19 -20 -27 -36 -23 -45 6 -10 5 -10 -5 -1 -10 9 -18 8 -37 -4 -30 -20 -154
-23 -177 -4 -8 7 -21 9 -27 5 -7 -4 -9 -3 -6 2 3 6 -6 18 -21 28 -32 21 -72
98 -74 141 -1 17 -6 36 -12 44 -8 11 -8 13 0 8 8 -4 14 6 19 31 4 20 5 37 3
37 -1 1 15 19 37 42 42 42 89 71 124 76 11 2 24 6 28 10 3 4 11 3 17 -3 6 -6
15 -5 25 3z m-608 -80 c13 -16 12 -17 -3 -4 -10 7 -18 15 -18 17 0 8 8 3 21
-13z m36 -478 c0 -8 -4 -12 -9 -9 -5 3 -6 10 -3 15 9 13 12 11 12 -6z m2118
-74 c3 -5 2 -12 -3 -15 -5 -3 -9 1 -9 9 0 17 3 19 12 6z m-1149 -13 c3 -4 -1
-5 -10 -4 -8 1 -18 5 -22 8 -3 4 1 5 10 4 8 -1 18 -5 22 -8z m-48 -194 c15
-10 31 -17 35 -16 5 1 6 -2 2 -8 -3 -5 0 -10 7 -11 8 0 9 -2 2 -5 -8 -3 -5
-17 7 -42 17 -32 19 -61 19 -249 l0 -213 -27 -1 c-16 -1 -36 -1 -45 0 -10 1
-18 -2 -18 -8 0 -6 -6 -8 -14 -5 -16 6 -27 -17 -31 -66 -12 -130 -14 -186 -7
-196 11 -16 42 -30 85 -38 39 -7 45 -14 25 -34 -9 -9 -2 -12 31 -12 34 0 47
-5 63 -25 11 -14 24 -22 30 -19 6 4 8 2 4 -4 -6 -9 -1 -26 30 -107 4 -11 6
-23 6 -27 -1 -5 1 -8 6 -8 11 0 12 -129 1 -136 -5 -3 -7 -9 -4 -14 11 -18 -14
-19 -46 -3 -18 9 -53 17 -77 17 l-44 1 5 78 c4 71 2 80 -17 92 -22 13 -125 41
-139 37 -5 -1 -6 2 -2 8 3 5 2 10 -3 10 -31 0 -86 87 -113 180 -7 25 -18 48
-24 52 -6 5 -5 8 3 8 8 0 10 5 6 12 -5 7 -7 25 -6 41 3 37 41 127 54 127 6 0
7 7 4 16 -3 8 -2 13 3 10 4 -3 15 2 23 12 32 37 29 50 -28 118 -63 74 -64 57
5 223 22 52 53 110 69 128 l29 33 -60 0 c-50 0 -58 -2 -48 -14 14 -17 8 -46
-31 -146 -17 -41 -34 -85 -39 -98 -8 -20 -11 -21 -29 -10 -18 11 -30 8 -94
-26 -90 -48 -158 -52 -228 -14 -24 12 -44 23 -46 24 -1 0 20 54 48 119 55 131
77 165 69 109 0 -4 5 -11 13 -15 9 -6 9 -9 1 -9 -9 0 -10 -7 -4 -22 6 -16 19
-25 42 -28 56 -9 159 -6 160 5 0 6 5 16 11 22 6 7 8 19 5 27 -3 8 -3 16 1 18
4 2 14 17 23 33 18 33 123 92 174 97 42 4 91 -7 123 -28z m-363 -43 c3 -5 2
-12 -3 -15 -5 -3 -9 1 -9 9 0 17 3 19 12 6z m2285 -51 c13 -18 17 -31 10 -35
-6 -4 -9 -1 -8 7 2 7 -3 12 -10 10 -8 -1 -11 2 -8 7 4 5 -1 16 -9 24 -8 9 -15
18 -15 22 0 11 19 -5 40 -35z m-243 15 c0 -8 -4 -12 -9 -9 -5 3 -6 10 -3 15 9
13 12 11 12 -6z m-1423 -29 c44 -68 48 -154 11 -232 -15 -32 -19 -34 -65 -34
l-50 0 0 133 c0 146 4 157 56 157 23 0 36 -7 48 -24z m1303 -91 c0 -8 -4 -12
-9 -9 -5 3 -6 10 -3 15 9 13 12 11 12 -6z m-766 -12 c13 -16 12 -17 -3 -4 -10
7 -18 15 -18 17 0 8 8 3 21 -13z m-116 -152 c3 -5 2 -12 -3 -15 -5 -3 -9 1 -9
9 0 17 3 19 12 6z m-445 -49 c0 -12 -60 -82 -71 -82 -5 0 -9 20 -9 45 l0 45
40 0 c22 0 40 -3 40 -8z m790 -257 c0 -154 -3 -190 -16 -210 l-16 -25 77 0 78
0 -19 21 c-17 19 -19 38 -19 202 0 164 2 180 18 183 9 1 17 -1 17 -4 0 -4 18
-16 40 -26 22 -11 40 -24 40 -29 0 -6 3 -7 7 -4 3 4 11 -2 17 -12 6 -10 25
-41 41 -67 26 -43 30 -59 31 -127 2 -84 -21 -152 -65 -191 -11 -10 -18 -23
-14 -29 3 -5 1 -7 -4 -4 -6 4 -16 0 -24 -9 -13 -16 -86 -52 -116 -57 -10 -1
-24 -6 -30 -10 -7 -5 -13 -5 -13 0 0 10 -52 9 -70 -2 -9 -5 -11 -4 -6 3 4 7 1
13 -8 13 -25 2 -28 3 -70 24 -44 21 -77 51 -102 94 -10 17 -21 28 -26 25 -4
-3 -5 3 -1 12 3 10 2 15 -3 12 -19 -12 -22 178 -3 212 7 14 12 28 11 32 -3 12
106 118 135 129 23 10 74 23 106 28 4 0 7 -82 7 -184z m-786 139 c3 -8 2 -12
-4 -9 -6 3 -10 10 -10 16 0 14 7 11 14 -7z m572 -36 c3 -4 -1 -5 -10 -4 -8 1
-18 5 -22 8 -3 4 1 5 10 4 8 -1 18 -5 22 -8z m-1807 -273 c11 -3 24 -20 30
-37 10 -29 13 -30 54 -25 38 5 45 3 67 -25 14 -16 32 -43 41 -59 9 -16 18 -27
20 -25 4 5 6 -9 10 -95 3 -59 -13 -132 -36 -163 -13 -18 -15 -17 -47 5 -28 20
-48 25 -127 28 -71 2 -96 0 -102 -10 -5 -8 -9 -46 -9 -86 0 -39 -4 -75 -10
-78 -5 -3 -10 -2 -10 3 0 5 -6 9 -13 9 -24 0 -104 43 -132 71 -47 46 -76 107
-83 174 -8 63 5 135 29 164 6 7 7 19 3 25 -4 7 -3 10 2 7 5 -4 20 9 34 28 14
18 31 34 38 34 6 0 12 5 12 10 0 6 7 10 16 10 9 0 12 5 8 12 -4 6 -3 8 4 5 12
-8 44 2 38 12 -5 8 139 14 163 6z m2475 -91 c3 -8 2 -12 -4 -9 -6 3 -10 10
-10 16 0 14 7 11 14 -7z m-2194 -58 c0 -2 -8 -10 -17 -17 -16 -13 -17 -12 -4
4 13 16 21 21 21 13z m205 -95 c-9 -8 -36 -10 -30 -2 2 4 11 8 20 8 8 0 13 -3
10 -6z m-850 -129 c-3 -3 -11 0 -18 7 -9 10 -8 11 6 5 10 -3 15 -9 12 -12z
m-584 -81 c7 -1 29 -46 39 -83 l9 -28 -55 0 c-49 0 -54 2 -55 23 0 12 -1 38
-2 58 -2 34 0 36 28 34 17 -2 33 -3 36 -4z m1052 -19 c11 -11 16 -25 13 -31
-9 -14 -86 -54 -86 -44 0 4 -5 2 -12 -5 -7 -7 -22 -12 -35 -12 -21 0 -23 4
-23 53 0 30 3 57 8 61 14 15 114 -2 135 -22z m1044 5 c13 -13 12 -17 -11 -41
-28 -31 -27 -62 4 -88 29 -24 25 -43 -14 -62 -91 -43 -164 16 -157 127 0 10 9
21 19 24 22 9 36 23 45 47 6 16 15 18 53 13 25 -2 53 -11 61 -20z m183 -213
c0 -8 -19 -13 -24 -6 -3 5 1 9 9 9 8 0 15 -2 15 -3z m-1535 -153 c3 -5 2 -12
-3 -15 -5 -3 -9 1 -9 9 0 17 3 19 12 6z m2095 -5 c0 -2 -8 -10 -17 -17 -16
-13 -17 -12 -4 4 13 16 21 21 21 13z m181 -173 c13 -16 12 -17 -3 -4 -10 7
-18 15 -18 17 0 8 8 3 21 -13z m-1671 -29 c0 -8 -19 -13 -24 -6 -3 5 1 9 9 9
8 0 15 -2 15 -3z"/>
<path d="M1661 8796 c19 -33 20 -49 17 -409 -3 -352 -4 -376 -22 -396 l-19
-21 159 0 c234 0 332 30 439 131 165 156 166 433 1 594 -102 99 -222 135 -450
135 l-145 0 20 -34z m332 -31 c191 -48 310 -234 278 -433 -33 -205 -188 -322
-426 -322 -34 0 -66 5 -73 12 -9 9 -12 105 -12 372 0 199 4 366 8 372 15 24
126 23 225 -1z"/>
<path d="M8071 8808 c-5 -13 -50 -126 -101 -253 -50 -126 -117 -295 -148 -374
-37 -93 -68 -156 -88 -177 l-31 -34 60 0 c50 0 58 2 48 14 -15 18 -6 52 52
196 l42 105 183 3 183 2 18 -44 c62 -143 93 -241 82 -258 -10 -17 -5 -18 69
-18 l80 0 -30 28 c-25 22 -61 105 -190 427 -158 399 -159 400 -189 403 -25 3
-33 -2 -40 -20z m107 -283 l80 -200 -84 -3 c-46 -1 -122 -1 -168 0 l-84 3 81
207 c45 114 85 204 89 200 3 -4 42 -97 86 -207z"/>
<path d="M8657 8803 c16 -25 18 -60 18 -403 0 -343 -2 -378 -18 -403 l-17 -27
55 0 55 0 -15 23 c-13 21 -15 75 -13 398 l3 374 61 -110 c119 -212 251 -451
294 -530 82 -152 84 -155 108 -155 l22 0 0 400 c0 340 2 405 15 430 l16 30
-54 0 -54 0 18 -38 c18 -36 19 -62 17 -355 l-3 -317 -150 271 c-212 383 -216
391 -210 417 5 21 3 22 -80 22 l-85 0 17 -27z"/>
<path d="M9995 8821 c-55 -14 -130 -52 -159 -79 -57 -54 -74 -148 -36 -209 24
-41 105 -87 195 -113 234 -68 297 -93 336 -130 47 -44 51 -82 17 -150 -55
-109 -240 -163 -360 -106 -54 26 -105 82 -139 154 l-30 62 -45 -32 c-24 -17
-44 -37 -44 -43 0 -13 49 -78 78 -105 37 -34 80 -58 139 -80 54 -19 76 -22
175 -18 148 6 207 26 274 93 42 42 52 59 62 107 27 137 -44 198 -323 279 -229
66 -272 92 -281 166 -11 92 79 165 214 172 105 5 157 -12 215 -73 l49 -49 26
34 c15 18 27 38 27 44 0 11 -37 30 -114 57 -61 22 -224 33 -276 19z"/>
<path d="M10580 8759 l0 -71 31 32 c42 42 86 58 174 65 l74 6 6 -33 c3 -18 5
-193 3 -389 -3 -335 -4 -358 -22 -378 l-19 -21 83 0 c75 0 82 2 64 14 -18 14
-19 32 -22 402 -2 307 0 389 10 396 19 12 147 -1 182 -19 17 -8 46 -29 64 -46
l32 -31 0 72 0 72 -330 0 -330 0 0 -71z"/>
<path d="M11720 8808 c-8 -18 -130 -327 -273 -688 -27 -70 -61 -126 -84 -139
-14 -8 -3 -10 46 -11 54 0 62 2 52 14 -16 19 -5 57 52 196 l44 105 183 0 184
0 38 -95 c62 -152 70 -178 58 -201 -10 -18 -7 -19 69 -19 l79 0 -32 33 c-31
31 -43 60 -296 702 -46 115 -49 120 -79 123 -24 3 -33 -2 -41 -20z m108 -283
l80 -200 -84 -3 c-46 -1 -122 -1 -168 0 l-84 3 82 207 c44 114 84 204 88 200
3 -4 42 -97 86 -207z"/>
<path d="M12667 8823 c-3 -5 -73 -178 -156 -385 -168 -422 -172 -430 -203
-452 -21 -15 -19 -16 42 -16 50 0 61 3 52 12 -18 18 -16 28 40 173 l52 135
184 -2 184 -3 50 -125 c34 -86 48 -135 46 -157 l-4 -33 77 0 77 0 -32 33 c-25
25 -65 116 -190 430 -156 392 -158 397 -186 397 -16 0 -31 -3 -33 -7z m98
-296 l81 -202 -164 -3 c-91 -1 -166 -1 -168 1 -2 2 33 96 79 209 45 114 84
204 87 201 3 -2 41 -95 85 -206z"/>
<path d="M13245 8800 c13 -24 15 -88 15 -410 0 -367 -1 -381 -20 -400 l-20
-20 303 0 304 0 2 55 c1 51 -9 70 -25 44 -3 -6 -27 -21 -53 -32 -39 -17 -72
-21 -217 -25 -160 -4 -173 -3 -182 14 -6 12 -9 164 -8 384 1 332 3 368 19 393
l17 27 -75 0 -76 0 16 -30z"/>
<path d="M7323 7639 c-59 -17 -91 -87 -63 -139 7 -14 5 -27 -7 -48 -14 -24
-15 -38 -8 -67 12 -47 47 -74 104 -79 100 -8 161 31 161 105 0 27 4 39 14 39
17 0 30 30 17 43 -5 5 -54 10 -110 11 -77 1 -104 5 -111 16 -24 37 3 69 57 70
44 0 63 -9 74 -36 10 -27 46 -33 55 -9 9 24 -15 71 -41 83 -36 17 -106 22
-142 11z m127 -216 c0 -14 -7 -35 -17 -45 -33 -37 -133 -13 -133 32 0 23 39
38 103 39 45 1 47 0 47 -26z"/>
<path d="M8662 7638 c-5 -7 -44 -79 -85 -160 -68 -132 -75 -149 -61 -163 21
-20 45 -7 69 39 l20 36 81 0 82 0 12 -31 c7 -17 19 -37 26 -44 17 -16 54 -8
54 12 0 25 -149 311 -166 317 -21 8 -20 8 -32 -6z m68 -184 c0 -6 -19 -10 -47
-10 -27 1 -47 5 -45 11 2 6 13 30 24 55 l20 44 24 -44 c13 -25 23 -50 24 -56z"/>
<path d="M11293 7631 c-10 -11 -49 -83 -88 -161 -66 -134 -69 -142 -52 -155
26 -19 42 -10 62 36 l18 39 82 0 81 0 22 -39 c26 -46 46 -56 67 -35 13 13 6
31 -61 162 -99 191 -98 189 -131 153z m48 -128 c12 -27 23 -51 25 -54 2 -4
-19 -6 -46 -6 -28 1 -50 5 -50 9 0 9 43 98 47 98 1 0 12 -21 24 -47z"/>
<path d="M12250 7634 c-70 -30 -103 -81 -102 -160 1 -83 43 -143 115 -162 35
-10 59 -9 114 3 31 7 83 54 83 75 0 29 -25 30 -65 2 -52 -37 -114 -37 -151 -1
-31 31 -42 95 -24 139 25 61 111 79 169 35 39 -28 73 -20 64 15 -13 51 -134
83 -203 54z"/>
<path d="M2354 7627 c-2 -7 -3 -80 -2 -162 l3 -150 25 0 c22 0 25 5 28 43 l3
42 55 0 c102 0 157 42 156 119 -1 50 -26 90 -69 107 -43 18 -192 19 -199 1z
m185 -61 c26 -24 27 -67 3 -90 -19 -16 -94 -28 -119 -19 -13 5 -19 113 -7 125
13 14 103 2 123 -16z"/>
<path d="M8002 7623 c-7 -14 -9 -229 -3 -298 0 -9 11 -15 26 -15 29 0 34 14
37 115 l3 70 34 -53 c55 -87 73 -85 131 11 12 21 24 37 26 35 1 -2 4 -37 5
-78 1 -41 4 -81 7 -87 4 -14 51 -18 53 -5 1 4 3 73 4 155 2 154 -3 176 -42
163 -10 -4 -40 -42 -66 -86 -27 -44 -52 -80 -56 -80 -4 0 -27 32 -51 71 -25
39 -51 77 -58 85 -18 19 -40 18 -50 -3z"/>
<path d="M9036 7624 c-3 -9 -6 -76 -6 -149 0 -73 3 -140 6 -149 7 -19 53 -22
56 -3 7 54 3 294 -5 305 -13 17 -44 15 -51 -4z"/>
<path d="M9292 7628 c-6 -8 -10 -72 -10 -155 0 -149 6 -169 45 -161 15 3 19
17 23 101 l5 98 40 -52 c22 -29 44 -57 50 -63 5 -6 23 -28 38 -49 23 -30 35
-37 55 -35 l27 3 3 158 c2 139 1 158 -14 164 -38 14 -49 -9 -49 -105 -1 -50
-3 -93 -5 -95 -3 -3 -40 42 -84 99 -76 102 -101 120 -124 92z"/>
<path d="M9741 7626 c-20 -23 10 -42 65 -41 l49 1 5 -136 c5 -131 6 -135 28
-138 32 -5 38 20 35 153 -1 63 1 115 5 116 4 0 29 2 55 4 53 3 73 15 64 39 -5
14 -29 16 -150 16 -111 0 -147 -3 -156 -14z"/>
<path d="M10224 7627 c-2 -7 -3 -80 -2 -162 l3 -150 128 -3 c109 -2 128 0 134
13 11 29 -14 38 -109 39 l-93 1 0 40 0 40 86 1 c90 1 109 6 109 29 0 20 -24
25 -116 25 l-84 0 0 43 0 44 96 1 c98 1 121 8 111 36 -5 13 -27 16 -132 16
-94 0 -127 -3 -131 -13z"/>
<path d="M10692 7632 c-9 -7 -12 -46 -10 -163 l3 -154 27 -3 c24 -3 28 1 32
30 3 18 4 61 3 96 -2 34 -1 64 1 67 3 2 40 -41 84 -95 61 -77 85 -100 104
-100 32 0 35 18 32 185 -3 125 -5 140 -21 143 -38 7 -47 -15 -47 -117 -1 -87
-2 -94 -16 -76 -8 11 -20 27 -27 35 -6 9 -32 42 -57 75 -63 84 -79 95 -108 77z"/>
<path d="M11674 7627 c-2 -7 -3 -80 -2 -162 l3 -150 24 0 c31 0 38 24 35 128
-1 43 2 75 6 70 4 -4 29 -37 56 -73 27 -36 54 -70 59 -76 6 -7 18 -21 27 -33
20 -23 53 -28 65 -8 4 6 8 76 8 155 1 149 -4 167 -42 160 -16 -3 -19 -17 -23
-105 l-5 -103 -82 105 c-81 102 -115 127 -129 92z"/>
<path d="M12653 7633 c-15 -5 -19 -289 -5 -311 7 -9 40 -12 133 -10 120 3 124
4 127 26 4 25 4 25 -120 24 -83 0 -89 3 -85 58 2 25 3 25 89 25 90 1 116 10
105 39 -5 12 -27 16 -99 18 l-93 3 0 40 0 40 94 2 c95 1 118 9 108 37 -5 13
-26 16 -124 15 -65 0 -124 -3 -130 -6z"/>
</g>
</svg>
